<svg xmlns="http://www.w3.org/2000/svg" viewBox="0 5.789999961853027 355.5899963378906 33.80999755859375" data-asc="0.78125" width="355.5899963378906" height="33.80999755859375"><defs/><g fill="#000000"><g transform="translate(0, 0)"><path d="M26.25 10.08Q27.08 10.08 27.43 10.46Q27.78 10.84 27.78 11.74Q27.78 12.65 27.43 13.02Q27.08 13.40 26.25 13.40L25.02 13.40L25.66 35.74L26.98 35.74Q27.81 35.74 28.16 36.12Q28.52 36.50 28.52 37.40Q28.52 38.31 28.16 38.68Q27.81 39.06 26.98 39.06L19.31 39.06Q18.48 39.06 18.13 38.68Q17.77 38.31 17.77 37.40Q17.77 36.50 18.13 36.12Q18.48 35.74 19.31 35.74L22.02 35.74L21.48 15.75L16.50 29.66Q16.19 30.52 15.66 30.88Q15.14 31.25 14.26 31.25Q13.38 31.25 12.85 30.88Q12.33 30.52 12.01 29.66L7.01 15.75L6.49 35.74L9.20 35.74Q10.03 35.74 10.39 36.12Q10.74 36.50 10.74 37.40Q10.74 38.31 10.39 38.68Q10.03 39.06 9.20 39.06L1.54 39.06Q0.71 39.06 0.35 38.68Q0 38.31 0 37.40Q0 36.50 0.35 36.12Q0.71 35.74 1.54 35.74L2.86 35.74L3.47 13.40L2.27 13.40Q1.44 13.40 1.09 13.02Q0.73 12.65 0.73 11.74Q0.73 10.84 1.09 10.46Q1.44 10.08 2.27 10.08L7.42 10.08Q8.01 10.08 8.35 10.28Q8.69 10.47 8.84 10.89L14.26 25.76L19.65 10.89Q19.92 10.08 21.09 10.08L26.25 10.08ZM51.71 15.97Q53.61 15.97 55.27 16.94Q56.25 17.53 56.25 18.46Q56.25 18.90 56.03 19.48Q55.52 20.87 54.61 20.87Q54.25 20.87 53.93 20.68Q52.73 20.02 51.37 20.02Q49.17 20.02 46.95 21.55Q44.73 23.07 43.30 25.61Q41.87 28.15 41.87 31.01L41.87 35.74L50.10 35.74Q50.93 35.74 51.28 36.12Q51.64 36.50 51.64 37.40Q51.64 38.31 51.28 38.68Q50.93 39.06 50.10 39.06L34.38 39.06Q33.54 39.06 33.19 38.68Q32.84 38.31 32.84 37.40Q32.84 36.50 33.19 36.12Q33.54 35.74 34.38 35.74L38.21 35.74L38.21 19.82L35.11 19.82Q34.28 19.82 33.92 19.45Q33.57 19.07 33.57 18.16Q33.57 17.26 33.92 16.88Q34.28 16.50 35.11 16.50L40.09 16.50Q40.92 16.50 41.27 16.88Q41.63 17.26 41.63 18.16L41.63 23.10Q42.80 20.95 44.46 19.34Q46.12 17.72 48.00 16.85Q49.88 15.97 51.71 15.97ZM75.10 16.50Q75.93 16.50 76.28 16.88Q76.64 17.26 76.64 18.16L76.64 35.74L84.47 35.74Q85.30 35.74 85.66 36.12Q86.01 36.50 86.01 37.40Q86.01 38.31 85.66 38.68Q85.30 39.06 84.47 39.06L65.33 39.06Q64.50 39.06 64.15 38.68Q63.79 38.31 63.79 37.40Q63.79 36.50 64.15 36.12Q64.50 35.74 65.33 35.74L72.97 35.74L72.97 19.82L66.80 19.82Q65.97 19.82 65.61 19.45Q65.26 19.07 65.26 18.16Q65.26 17.26 65.61 16.88Q65.97 16.50 66.80 16.50L75.10 16.50M74.32 5.79Q75.66 5.79 76.15 6.14Q76.64 6.49 76.64 7.37L76.64 10.55Q76.64 11.43 76.15 11.78Q75.66 12.13 74.32 12.13Q72.97 12.13 72.49 11.78Q72.00 11.43 72.00 10.55L72.00 7.37Q72.00 6.49 72.49 6.14Q72.97 5.79 74.32 5.79ZM106.96 15.97Q109.18 15.97 110.82 16.93Q112.45 17.90 113.33 19.70Q114.21 21.51 114.21 23.93L114.21 35.74L116.21 35.74Q117.04 35.74 117.40 36.12Q117.75 36.50 117.75 37.40Q117.75 38.31 117.40 38.68Q117.04 39.06 116.21 39.06L108.30 39.06Q107.47 39.06 107.12 38.68Q106.76 38.31 106.76 37.40Q106.76 36.50 107.12 36.12Q107.47 35.74 108.30 35.74L110.55 35.74L110.55 24.29Q110.55 22.12 109.55 20.85Q108.54 19.58 106.59 19.58Q104.52 19.58 102.72 20.78Q100.93 21.97 99.85 24.07Q98.78 26.17 98.78 28.76L98.78 35.74L101.03 35.74Q101.86 35.74 102.21 36.12Q102.56 36.50 102.56 37.40Q102.56 38.31 102.21 38.68Q101.86 39.06 101.03 39.06L93.12 39.06Q92.29 39.06 91.93 38.68Q91.58 38.31 91.58 37.40Q91.58 36.50 91.93 36.12Q92.29 35.74 93.12 35.74L95.12 35.74L95.12 19.82L92.63 19.82Q91.80 19.82 91.44 19.45Q91.09 19.07 91.09 18.16Q91.09 17.26 91.44 16.88Q91.80 16.50 92.63 16.50L97.00 16.50Q97.83 16.50 98.18 16.88Q98.54 17.26 98.54 18.16L98.54 21.09Q100.15 18.60 102.31 17.29Q104.47 15.97 106.96 15.97ZM134.28 15.97Q138.87 15.97 141.16 18.02Q143.46 20.07 143.46 24.10L143.46 33.81Q143.46 35.74 145.07 35.74L145.92 35.74Q146.75 35.74 147.11 36.12Q147.46 36.50 147.46 37.40Q147.46 38.31 147.11 38.68Q146.75 39.06 145.92 39.06L144.36 39.06Q142.77 39.06 141.64 38.27Q140.50 37.48 140.16 35.94Q138.16 37.70 135.83 38.65Q133.50 39.60 130.88 39.60Q128.42 39.60 126.53 38.76Q124.63 37.92 123.56 36.30Q122.49 34.69 122.49 32.47Q122.49 28.61 125.24 26.77Q128.00 24.93 132.37 24.93Q136.25 24.93 139.79 26.17L139.79 24.10Q139.79 21.73 138.46 20.62Q137.13 19.51 134.18 19.51Q132.35 19.51 130.37 20.02Q128.39 20.53 126.61 21.44Q126.20 21.66 125.85 21.66Q125.05 21.66 124.51 20.48Q124.24 19.90 124.24 19.51Q124.24 18.65 125.15 18.19Q127.20 17.11 129.55 16.54Q131.91 15.97 134.28 15.97M132.40 28.37Q129.59 28.37 127.97 29.33Q126.34 30.30 126.34 32.40Q126.34 34.18 127.58 35.17Q128.81 36.16 131.03 36.16Q135.89 36.16 139.79 32.13L139.79 29.47Q138.13 28.93 136.23 28.65Q134.33 28.37 132.40 28.37ZM164.79 7.03Q165.63 7.03 165.98 7.41Q166.33 7.79 166.33 8.69L166.33 35.74L174.17 35.74Q175 35.74 175.35 36.12Q175.71 36.50 175.71 37.40Q175.71 38.31 175.35 38.68Q175 39.06 174.17 39.06L155.03 39.06Q154.20 39.06 153.85 38.68Q153.49 38.31 153.49 37.40Q153.49 36.50 153.85 36.12Q154.20 35.74 155.03 35.74L162.67 35.74L162.67 10.35L156.01 10.35Q155.18 10.35 154.82 9.97Q154.47 9.59 154.47 8.69Q154.47 7.79 154.82 7.41Q155.18 7.03 156.01 7.03L164.79 7.03ZM237.82 10.08Q238.65 10.08 239.00 10.46Q239.36 10.84 239.36 11.74Q239.36 12.65 239.00 13.02Q238.65 13.40 237.82 13.40L236.50 13.40L233.13 38.01Q233.01 38.89 232.51 39.25Q232.01 39.60 231.03 39.60Q229.03 39.60 228.54 38.01L224.02 23.83L219.46 38.01Q218.95 39.60 216.92 39.60Q215.97 39.60 215.47 39.23Q214.97 38.87 214.87 38.01L211.62 13.40L210.42 13.40Q209.59 13.40 209.24 13.02Q208.89 12.65 208.89 11.74Q208.89 10.84 209.24 10.46Q209.59 10.08 210.42 10.08L218.82 10.08Q219.65 10.08 220.01 10.46Q220.36 10.84 220.36 11.74Q220.36 12.65 220.01 13.02Q219.65 13.40 218.82 13.40L215.26 13.40L217.70 32.96L222.29 18.60Q222.63 17.46 224.05 17.46Q224.83 17.46 225.26 17.70Q225.68 17.94 225.83 18.43L230.40 32.96L232.93 13.40L229.91 13.40Q229.08 13.40 228.72 13.02Q228.37 12.65 228.37 11.74Q228.37 10.84 228.72 10.46Q229.08 10.08 229.91 10.08L237.82 10.08ZM254.20 15.97Q258.79 15.97 261.08 18.02Q263.38 20.07 263.38 24.10L263.38 33.81Q263.38 35.74 264.99 35.74L265.84 35.74Q266.67 35.74 267.03 36.12Q267.38 36.50 267.38 37.40Q267.38 38.31 267.03 38.68Q266.67 39.06 265.84 39.06L264.28 39.06Q262.70 39.06 261.56 38.27Q260.42 37.48 260.08 35.94Q258.08 37.70 255.75 38.65Q253.42 39.60 250.81 39.60Q248.34 39.60 246.45 38.76Q244.56 37.92 243.48 36.30Q242.41 34.69 242.41 32.47Q242.41 28.61 245.17 26.77Q247.92 24.93 252.29 24.93Q256.18 24.93 259.72 26.17L259.72 24.10Q259.72 21.73 258.39 20.62Q257.06 19.51 254.10 19.51Q252.27 19.51 250.29 20.02Q248.32 20.53 246.53 21.44Q246.12 21.66 245.78 21.66Q244.97 21.66 244.43 20.48Q244.17 19.90 244.17 19.51Q244.17 18.65 245.07 18.19Q247.12 17.11 249.48 16.54Q251.83 15.97 254.20 15.97M252.32 28.37Q249.51 28.37 247.89 29.33Q246.26 30.30 246.26 32.40Q246.26 34.18 247.50 35.17Q248.73 36.16 250.95 36.16Q255.81 36.16 259.72 32.13L259.72 29.47Q258.06 28.93 256.15 28.65Q254.25 28.37 252.32 28.37ZM276.88 7.03Q277.71 7.03 278.06 7.41Q278.42 7.79 278.42 8.69L278.42 20.85Q280.00 18.48 282.09 17.22Q284.18 15.97 286.60 15.97Q288.82 15.97 290.45 16.93Q292.09 17.90 292.97 19.70Q293.85 21.51 293.85 23.93L293.85 35.74L295.85 35.74Q296.68 35.74 297.03 36.12Q297.39 36.50 297.39 37.40Q297.39 38.31 297.03 38.68Q296.68 39.06 295.85 39.06L287.94 39.06Q287.11 39.06 286.76 38.68Q286.40 38.31 286.40 37.40Q286.40 36.50 286.76 36.12Q287.11 35.74 287.94 35.74L290.19 35.74L290.19 24.29Q290.19 22.12 289.18 20.85Q288.18 19.58 286.23 19.58Q284.16 19.58 282.36 20.78Q280.57 21.97 279.49 24.07Q278.42 26.17 278.42 28.76L278.42 35.74L280.66 35.74Q281.49 35.74 281.85 36.12Q282.20 36.50 282.20 37.40Q282.20 38.31 281.85 38.68Q281.49 39.06 280.66 39.06L272.75 39.06Q271.92 39.06 271.57 38.68Q271.22 38.31 271.22 37.40Q271.22 36.50 271.57 36.12Q271.92 35.74 272.75 35.74L274.76 35.74L274.76 10.35L272.51 10.35Q271.68 10.35 271.33 9.97Q270.97 9.59 270.97 8.69Q270.97 7.79 271.33 7.41Q271.68 7.03 272.51 7.03L276.88 7.03ZM314.16 15.97Q318.75 15.97 321.04 18.02Q323.34 20.07 323.34 24.10L323.34 33.81Q323.34 35.74 324.95 35.74L325.81 35.74Q326.64 35.74 326.99 36.12Q327.34 36.50 327.34 37.40Q327.34 38.31 326.99 38.68Q326.64 39.06 325.81 39.06L324.24 39.06Q322.66 39.06 321.52 38.27Q320.39 37.48 320.04 35.94Q318.04 37.70 315.71 38.65Q313.38 39.60 310.77 39.60Q308.30 39.60 306.41 38.76Q304.52 37.92 303.44 36.30Q302.37 34.69 302.37 32.47Q302.37 28.61 305.13 26.77Q307.89 24.93 312.26 24.93Q316.14 24.93 319.68 26.17L319.68 24.10Q319.68 21.73 318.35 20.62Q317.02 19.51 314.06 19.51Q312.23 19.51 310.25 20.02Q308.28 20.53 306.49 21.44Q306.08 21.66 305.74 21.66Q304.93 21.66 304.39 20.48Q304.13 19.90 304.13 19.51Q304.13 18.65 305.03 18.19Q307.08 17.11 309.44 16.54Q311.79 15.97 314.16 15.97M312.28 28.37Q309.47 28.37 307.85 29.33Q306.23 30.30 306.23 32.40Q306.23 34.18 307.46 35.17Q308.69 36.16 310.91 36.16Q315.77 36.16 319.68 32.13L319.68 29.47Q318.02 28.93 316.11 28.65Q314.21 28.37 312.28 28.37ZM344.68 7.03Q345.51 7.03 345.86 7.41Q346.22 7.79 346.22 8.69L346.22 35.74L354.05 35.74Q354.88 35.74 355.24 36.12Q355.59 36.50 355.59 37.40Q355.59 38.31 355.24 38.68Q354.88 39.06 354.05 39.06L334.91 39.06Q334.08 39.06 333.73 38.68Q333.37 38.31 333.37 37.40Q333.37 36.50 333.73 36.12Q334.08 35.74 334.91 35.74L342.55 35.74L342.55 10.35L335.89 10.35Q335.06 10.35 334.70 9.97Q334.35 9.59 334.35 8.69Q334.35 7.79 334.70 7.41Q335.06 7.03 335.89 7.03L344.68 7.03Z"/></g></g></svg>