<svg xmlns="http://www.w3.org/2000/svg" viewBox="0 9.470000267028809 282.6700134277344 36.37999725341797" data-asc="0.9052734375" width="282.6700134277344" height="36.37999725341797"><defs/><g fill="#000000"><g transform="translate(0, 0)"><path d="M0 45.26L0 9.47L7.13 9.47L15.60 34.81Q16.77 38.35 17.31 40.11Q17.92 38.16 19.21 34.38L27.78 9.47L34.16 9.47L34.16 45.26L29.59 45.26L29.59 15.31L19.19 45.26L14.92 45.26L4.57 14.79L4.57 45.26L0 45.26ZM41.19 45.26L41.19 19.34L45.14 19.34L45.14 23.27Q46.66 20.51 47.94 19.63Q49.22 18.75 50.76 18.75Q52.98 18.75 55.27 20.17L53.76 24.24Q52.15 23.29 50.54 23.29Q49.10 23.29 47.95 24.16Q46.80 25.02 46.31 26.56Q45.58 28.91 45.58 31.69L45.58 45.26L41.19 45.26ZM57.91 14.53L57.91 9.47L62.30 9.47L62.30 14.53L57.91 14.53M57.91 45.26L57.91 19.34L62.30 19.34L62.30 45.26L57.91 45.26ZM68.99 45.26L68.99 19.34L72.95 19.34L72.95 23.02Q75.81 18.75 81.20 18.75Q83.54 18.75 85.51 19.59Q87.48 20.43 88.45 21.80Q89.43 23.17 89.82 25.05Q90.06 26.27 90.06 29.32L90.06 45.26L85.67 45.26L85.67 29.49Q85.67 26.81 85.16 25.48Q84.64 24.15 83.34 23.35Q82.03 22.56 80.27 22.56Q77.47 22.56 75.43 24.34Q73.39 26.12 73.39 31.10L73.39 45.26L68.99 45.26ZM113.72 42.07Q111.28 44.14 109.02 45.00Q106.76 45.85 104.17 45.85Q99.90 45.85 97.61 43.76Q95.31 41.67 95.31 38.43Q95.31 36.52 96.18 34.95Q97.05 33.37 98.45 32.42Q99.85 31.47 101.61 30.98Q102.91 30.64 105.52 30.32Q110.84 29.69 113.35 28.81Q113.38 27.91 113.38 27.66Q113.38 24.98 112.13 23.88Q110.45 22.39 107.13 22.39Q104.03 22.39 102.55 23.47Q101.07 24.56 100.37 27.32L96.07 26.73Q96.66 23.97 98.00 22.28Q99.34 20.58 101.88 19.67Q104.42 18.75 107.76 18.75Q111.08 18.75 113.16 19.53Q115.23 20.31 116.21 21.50Q117.19 22.68 117.58 24.49Q117.80 25.61 117.80 28.54L117.80 34.40Q117.80 40.53 118.08 42.15Q118.36 43.77 119.19 45.26L114.60 45.26Q113.92 43.90 113.72 42.07M113.35 32.25Q110.96 33.23 106.18 33.91Q103.47 34.30 102.34 34.79Q101.22 35.28 100.61 36.22Q100 37.16 100 38.31Q100 40.06 101.33 41.24Q102.66 42.41 105.22 42.41Q107.76 42.41 109.74 41.30Q111.72 40.19 112.65 38.26Q113.35 36.77 113.35 33.86L113.35 32.25ZM124.51 45.26L124.51 9.47L128.91 9.47L128.91 45.26L124.51 45.26ZM156.42 45.26L146.92 9.47L151.78 9.47L157.23 32.93Q158.11 36.62 158.74 40.26Q160.11 34.52 160.35 33.64L167.16 9.47L172.88 9.47L178.00 27.59Q179.93 34.33 180.79 40.26Q181.47 36.87 182.57 32.47L188.18 9.47L192.94 9.47L183.13 45.26L178.56 45.26L171.02 17.99Q170.07 14.58 169.90 13.79Q169.34 16.26 168.85 17.99L161.25 45.26L156.42 45.26ZM211.87 42.07Q209.42 44.14 207.17 45.00Q204.91 45.85 202.32 45.85Q198.05 45.85 195.75 43.76Q193.46 41.67 193.46 38.43Q193.46 36.52 194.32 34.95Q195.19 33.37 196.59 32.42Q198.00 31.47 199.76 30.98Q201.05 30.64 203.66 30.32Q208.98 29.69 211.50 28.81Q211.52 27.91 211.52 27.66Q211.52 24.98 210.28 23.88Q208.59 22.39 205.27 22.39Q202.17 22.39 200.70 23.47Q199.22 24.56 198.51 27.32L194.21 26.73Q194.80 23.97 196.14 22.28Q197.49 20.58 200.02 19.67Q202.56 18.75 205.91 18.75Q209.23 18.75 211.30 19.53Q213.38 20.31 214.36 21.50Q215.33 22.68 215.72 24.49Q215.94 25.61 215.94 28.54L215.94 34.40Q215.94 40.53 216.22 42.15Q216.50 43.77 217.33 45.26L212.74 45.26Q212.06 43.90 211.87 42.07M211.50 32.25Q209.11 33.23 204.32 33.91Q201.61 34.30 200.49 34.79Q199.37 35.28 198.75 36.22Q198.14 37.16 198.14 38.31Q198.14 40.06 199.48 41.24Q200.81 42.41 203.37 42.41Q205.91 42.41 207.89 41.30Q209.86 40.19 210.79 38.26Q211.50 36.77 211.50 33.86L211.50 32.25ZM222.75 45.26L222.75 9.47L227.15 9.47L227.15 22.31Q230.22 18.75 234.91 18.75Q237.79 18.75 239.92 19.89Q242.04 21.02 242.96 23.02Q243.87 25.02 243.87 28.83L243.87 45.26L239.48 45.26L239.48 28.83Q239.48 25.54 238.05 24.04Q236.62 22.53 234.01 22.53Q232.06 22.53 230.33 23.55Q228.61 24.56 227.88 26.29Q227.15 28.03 227.15 31.08L227.15 45.26L222.75 45.26ZM267.48 42.07Q265.04 44.14 262.78 45.00Q260.52 45.85 257.93 45.85Q253.66 45.85 251.37 43.76Q249.07 41.67 249.07 38.43Q249.07 36.52 249.94 34.95Q250.81 33.37 252.21 32.42Q253.61 31.47 255.37 30.98Q256.67 30.64 259.28 30.32Q264.60 29.69 267.11 28.81Q267.14 27.91 267.14 27.66Q267.14 24.98 265.89 23.88Q264.21 22.39 260.89 22.39Q257.79 22.39 256.31 23.47Q254.83 24.56 254.13 27.32L249.83 26.73Q250.42 23.97 251.76 22.28Q253.10 20.58 255.64 19.67Q258.18 18.75 261.52 18.75Q264.84 18.75 266.92 19.53Q268.99 20.31 269.97 21.50Q270.95 22.68 271.34 24.49Q271.56 25.61 271.56 28.54L271.56 34.40Q271.56 40.53 271.84 42.15Q272.12 43.77 272.95 45.26L268.36 45.26Q267.68 43.90 267.48 42.07M267.11 32.25Q264.72 33.23 259.94 33.91Q257.23 34.30 256.10 34.79Q254.98 35.28 254.37 36.22Q253.76 37.16 253.76 38.31Q253.76 40.06 255.09 41.24Q256.42 42.41 258.98 42.41Q261.52 42.41 263.50 41.30Q265.48 40.19 266.41 38.26Q267.11 36.77 267.11 33.86L267.11 32.25ZM278.27 45.26L278.27 9.47L282.67 9.47L282.67 45.26L278.27 45.26Z"/></g></g></svg>